# xmcd
#
# Track frame offsets:
#	150
#	15898
#	34903
#	57511
#	79498
#	97751
#	118874
#	146912
#	163982
#	177144
#
# Disc length: 2678 seconds
#
# Revision: 1
# Processed by: cddbd v1.4PL0 Copyright (c) Steve Scherf et al.
# Submitted via: EasyCDDAExtractor 5.0.6
#
DISCID=840a740a
DTITLE=Various Artist - Blue Flame Program
DYEAR=2001
DGENRE=Blues
TTITLE0=Sweet Little Sixteen-Bugs Henderson
TTITLE1=Double Barrel Boogie-Bob Page
TTITLE2=St. Patrick's Ilse-Patrick McGinley
TTITLE3=Pub Crawl-Family Style
TTITLE4=Stuck-O-Lee-TJ Wheeler&J Ricks
TTITLE5=Mr. Feasible-Kathy McMearty
TTITLE6=Still a Fool-The Groundhogs
TTITLE7=Blue Christmas-Honey Davis
TTITLE8=Your Love is Like a Cigarette-Phil Giomo
TTITLE9=A Thousand Times-P McGinley and Family Style
EXTD=
EXTT0=
EXTT1=
EXTT2=
EXTT3=
EXTT4=
EXTT5=
EXTT6=
EXTT7=
EXTT8=
EXTT9=
PLAYORDER=
